<svg xmlns="http://www.w3.org/2000/svg" viewBox="0 0 1440 900" role="img" aria-label="Abstract dream sky">
  <defs>
    <linearGradient id="sky" x1="0" y1="0" x2="1" y2="1">
      <stop offset="0" stop-color="#6f63d9"/>
      <stop offset="0.5" stop-color="#dc78b5"/>
      <stop offset="1" stop-color="#55b7ca"/>
    </linearGradient>
    <radialGradient id="moon" cx="0.45" cy="0.4" r="0.6">
      <stop offset="0" stop-color="#fff7d6"/>
      <stop offset="1" stop-color="#f5cbe8"/>
    </radialGradient>
    <filter id="blur"><feGaussianBlur stdDeviation="28"/></filter>
  </defs>
  <rect width="1440" height="900" fill="url(#sky)"/>
  <circle cx="1120" cy="190" r="104" fill="url(#moon)"/>
  <g fill="#fff" opacity="0.78">
    <circle cx="126" cy="128" r="3"/><circle cx="234" cy="242" r="4"/>
    <circle cx="382" cy="102" r="2.5"/><circle cx="512" cy="190" r="3"/>
    <circle cx="704" cy="84" r="3.5"/><circle cx="848" cy="256" r="2.5"/>
    <circle cx="978" cy="94" r="3"/><circle cx="1290" cy="310" r="4"/>
  </g>
  <g filter="url(#blur)" opacity="0.42" fill="#fff">
    <ellipse cx="260" cy="664" rx="290" ry="105"/>
    <ellipse cx="720" cy="730" rx="410" ry="120"/>
    <ellipse cx="1240" cy="650" rx="330" ry="114"/>
  </g>
  <path d="M0 760 C190 650 340 820 520 708 C690 602 846 804 1030 694 C1182 604 1300 710 1440 650 L1440 900 L0 900 Z" fill="#392f76" opacity="0.48"/>
  <path d="M0 822 C210 724 354 874 570 772 C748 688 940 842 1140 752 C1268 694 1362 736 1440 710 L1440 900 L0 900 Z" fill="#1f315d" opacity="0.56"/>
</svg>
